<svg xmlns="http://www.w3.org/2000/svg" viewBox="0 0 32 32" fill="none">
  <defs>
    <linearGradient id="g" x1="0" y1="0" x2="32" y2="32" gradientUnits="userSpaceOnUse">
      <stop offset="0%" stop-color="#3b82f6"/>
      <stop offset="100%" stop-color="#8b5cf6"/>
    </linearGradient>
  </defs>
  <rect width="32" height="32" rx="8" fill="url(#g)"/>
  <line x1="16" y1="16" x2="7" y2="8"  stroke="white" stroke-width="1.4" stroke-linecap="round" opacity="0.75"/>
  <line x1="16" y1="16" x2="25" y2="8"  stroke="white" stroke-width="1.4" stroke-linecap="round" opacity="0.75"/>
  <line x1="16" y1="16" x2="7" y2="24" stroke="white" stroke-width="1.4" stroke-linecap="round" opacity="0.75"/>
  <line x1="16" y1="16" x2="25" y2="24" stroke="white" stroke-width="1.4" stroke-linecap="round" opacity="0.75"/>
  <line x1="16" y1="16" x2="16" y2="6"  stroke="white" stroke-width="1.4" stroke-linecap="round" opacity="0.75"/>
  <line x1="16" y1="16" x2="16" y2="26" stroke="white" stroke-width="1.4" stroke-linecap="round" opacity="0.75"/>
  <line x1="16" y1="16" x2="6"  y2="16" stroke="white" stroke-width="1.4" stroke-linecap="round" opacity="0.75"/>
  <line x1="16" y1="16" x2="26" y2="16" stroke="white" stroke-width="1.4" stroke-linecap="round" opacity="0.75"/>
  <circle cx="16" cy="16" r="3.2" fill="white"/>
  <circle cx="7"  cy="8"  r="1.8" fill="white" opacity="0.9"/>
  <circle cx="25" cy="8"  r="1.8" fill="white" opacity="0.9"/>
  <circle cx="7"  cy="24" r="1.8" fill="white" opacity="0.9"/>
  <circle cx="25" cy="24" r="1.8" fill="white" opacity="0.9"/>
  <circle cx="16" cy="6"  r="1.8" fill="white" opacity="0.9"/>
  <circle cx="16" cy="26" r="1.8" fill="white" opacity="0.9"/>
  <circle cx="6"  cy="16" r="1.8" fill="white" opacity="0.9"/>
  <circle cx="26" cy="16" r="1.8" fill="white" opacity="0.9"/>
</svg>
